HIERARCHY
ROOT Hips
{
  OFFSET 0.201979 17.0252 -0.123586
  CHANNELS 6 Xposition Yposition Zposition Zrotation Xrotation Yrotation
  JOINT LHipJoint
  {
    OFFSET 0 0 0
    CHANNELS 6 Xposition Yposition Zposition Zrotation Xrotation Yrotation
    JOINT LeftUpLeg
    {
      OFFSET 1.36306 -1.79463 0.83929
      CHANNELS 6 Xposition Yposition Zposition Zrotation Xrotation Yrotation
      JOINT LeftLeg
      {
        OFFSET 2.44811 -6.72613 0
        CHANNELS 6 Xposition Yposition Zposition Zrotation Xrotation Yrotation
        JOINT LeftFoot
        {
          OFFSET 2.5622 -7.03959 0
          CHANNELS 6 Xposition Yposition Zposition Zrotation Xrotation Yrotation
          JOINT LeftToeBase
          {
            OFFSET 0.15764 -0.43311 2.32255
            CHANNELS 6 Xposition Yposition Zposition Zrotation Xrotation Yrotation
            End Site
            {
              OFFSET 0 0 0
            }
          }
        }
      }
    }
  }
  JOINT RHipJoint
  {
    OFFSET 0 0 0
    CHANNELS 6 Xposition Yposition Zposition Zrotation Xrotation Yrotation
    JOINT RightUpLeg
    {
      OFFSET -1.30552 -1.79463 0.83929
      CHANNELS 6 Xposition Yposition Zposition Zrotation Xrotation Yrotation
      JOINT RightLeg
      {
        OFFSET -2.54253 -6.98555 0
        CHANNELS 6 Xposition Yposition Zposition Zrotation Xrotation Yrotation
        JOINT RightFoot
        {
          OFFSET -2.56826 -7.05623 0
          CHANNELS 6 Xposition Yposition Zposition Zrotation Xrotation Yrotation
          JOINT RightToeBase
          {
            OFFSET -0.16473 -0.45259 2.36315
            CHANNELS 6 Xposition Yposition Zposition Zrotation Xrotation Yrotation
            End Site
            {
              OFFSET 0 0 0
            }
          }
        }
      }
    }
  }
  JOINT LowerBack
  {
    OFFSET 0 0 0
    CHANNELS 6 Xposition Yposition Zposition Zrotation Xrotation Yrotation
    JOINT Spine
    {
      OFFSET 0.02827 2.03559 -0.19338
      CHANNELS 6 Xposition Yposition Zposition Zrotation Xrotation Yrotation
      JOINT Spine1
      {
        OFFSET 0.05672 2.04885 -0.04275
        CHANNELS 6 Xposition Yposition Zposition Zrotation Xrotation Yrotation
        JOINT Neck
        {
          OFFSET 0 0 0
          CHANNELS 6 Xposition Yposition Zposition Zrotation Xrotation Yrotation
          JOINT Neck1
          {
            OFFSET -0.05417 1.74624 0.17202
            CHANNELS 6 Xposition Yposition Zposition Zrotation Xrotation Yrotation
            JOINT Head
            {
              OFFSET 0.10407 1.76136 -0.12397
              CHANNELS 6 Xposition Yposition Zposition Zrotation Xrotation Yrotation
              End Site
              {
                OFFSET 0 0 0
              }
            }
          }
        }
        JOINT LeftShoulder
        {
          OFFSET 0 0 0
          CHANNELS 6 Xposition Yposition Zposition Zrotation Xrotation Yrotation
          JOINT LeftArm
          {
            OFFSET 3.36241 1.20089 -0.31121
            CHANNELS 6 Xposition Yposition Zposition Zrotation Xrotation Yrotation
            JOINT LeftForeArm
            {
              OFFSET 4.983 0 0
              CHANNELS 6 Xposition Yposition Zposition Zrotation Xrotation Yrotation
              JOINT LeftHand
              {
                OFFSET 3.48356 0 0
                CHANNELS 6 Xposition Yposition Zposition Zrotation Xrotation Yrotation
                JOINT LeftFingerBase
                {
                  OFFSET 0 0 0
                  CHANNELS 6 Xposition Yposition Zposition Zrotation Xrotation Yrotation
                  JOINT LeftHandIndex1
                  {
                    OFFSET 0.71526 0 0
                    CHANNELS 6 Xposition Yposition Zposition Zrotation Xrotation Yrotation
                    End Site
                    {
                      OFFSET 0 0 0
                    }
                  }
                }
                JOINT LThumb
                {
                  OFFSET 0 0 0
                  CHANNELS 6 Xposition Yposition Zposition Zrotation Xrotation Yrotation
                  End Site
                  {
                    OFFSET 0 0 0
                  }
                }
              }
            }
          }
        }
        JOINT RightShoulder
        {
          OFFSET 0 0 0
          CHANNELS 6 Xposition Yposition Zposition Zrotation Xrotation Yrotation
          JOINT RightArm
          {
            OFFSET -3.1366 1.37405 -0.40465
            CHANNELS 6 Xposition Yposition Zposition Zrotation Xrotation Yrotation
            JOINT RightForeArm
            {
              OFFSET -5.2419 0 0
              CHANNELS 6 Xposition Yposition Zposition Zrotation Xrotation Yrotation
              JOINT RightHand
              {
                OFFSET -3.44417 0 0
                CHANNELS 6 Xposition Yposition Zposition Zrotation Xrotation Yrotation
                JOINT RightFingerBase
                {
                  OFFSET 0 0 0
                  CHANNELS 6 Xposition Yposition Zposition Zrotation Xrotation Yrotation
                  JOINT RightHandIndex1
                  {
                    OFFSET -0.62253 0 0
                    CHANNELS 6 Xposition Yposition Zposition Zrotation Xrotation Yrotation
                    End Site
                    {
                      OFFSET 0 0 0
                    }
                  }
                }
                JOINT RThumb
                {
                  OFFSET 0 0 0
                  CHANNELS 6 Xposition Yposition Zposition Zrotation Xrotation Yrotation
                  End Site
                  {
                    OFFSET 0 0 0
                  }
                }
              }
            }
          }
        }
      }
    }
  }
}
MOTION
Frames:	4
Frame Time:	0.00833333
0.201979 17.0252 -0.123586 0.934048 8.58921 -7.64881 0 0 0 -0.299681 5.35791 18.0368 1.36306 -1.79463 0.83929 -47.3614 -42.0409 -30.4253 2.44811 -6.72613 0 5.89602 32.731 2.35943 2.5622 -7.03959 0 0.868833 13.0087 0.633107 0.15764 -0.43311 2.32255 -8.7077e-015 1.59028e-015 -3.72721e-016 0 0 0 -8.85582 0.425549 -20.6242 -1.30552 -1.79463 0.83929 26.4002 3.66359 4.1204 -2.54253 -6.98555 4.44089e-016 -4.05596 43.0238 -6.74684 -2.56826 -7.05623 0 -2.45222 14.4031 0.162453 -0.16473 -0.45259 2.36315 -2.29811e-006 -2.10599e-006 9.26645e-007 0 0 0 -1.93281 -2.12354 0.12108 0.02827 2.03559 -0.19338 9.89622 31.1295 -2.11878 0.05672 2.04885 -0.04275 -7.21607 -10.2072 -0.84827 0 0 0 -1.00716 -9.92054 -0.0272202 -0.05417 1.74624 0.17202 2.43774 26.9012 -1.27783 0.10407 1.76136 -0.12397 1.0587e-007 -2.60176e-006 -3.94386e-007 0 0 0 13.4913 -5.40754 23.2949 3.36241 1.20089 -0.31121 -99.8041 20.5439 -37.3858 4.983 0 0 -11.4523 6.51783 -12.6531 3.48356 4.44089e-016 0 0.940661 -0.100239 -0.882789 0 0 0 -0.121021 4.53672e-006 -1.14815 0.71526 0 0 -3.18055e-015 -3.18055e-015 9.54166e-015 0 0 0 -1.59028e-015 -3.18055e-015 -3.18055e-015 0 0 0 -11.3621 -6.17214 -4.97006 -3.1366 1.37405 -0.40465 72.793 33.5629 71.4619 -5.2419 -8.88178e-016 -1.77636e-015 42.6408 34.2199 76.6756 -3.44417 0 3.55271e-015 25.1979 -9.23344 -12.3312 0 0 0 0.388202 -2.63711e-006 2.4941 -0.62253 0 0 3.18055e-015 9.93923e-016 7.60351e-015 0 0 0 2.37075e-033 -9.93923e-016 1.36664e-016 
0.235498 16.9967 0.124788 1.31936 8.31646 -7.95573 0 0 0 -0.299681 5.35791 18.0368 1.36306 -1.79463 0.83929 -47.4536 -41.6622 -30.3644 2.44811 -6.72613 0 5.81671 33.544 3.13175 2.5622 -7.03959 0 0.162626 15.2336 1.5983 0.15764 -0.43311 2.32255 0.00672543 -0.0297656 -0.00998988 0 0 0 -8.85582 0.425549 -20.6242 -1.30552 -1.79463 0.83929 25.8805 2.69326 4.56331 -2.54253 -6.98555 0 -4.09487 45.113 -7.31736 -2.56826 -7.05623 8.88178e-016 -1.97457 17.7294 -1.06046 -0.16473 -0.45259 2.36315 -0.0383734 -3.18816 1.06093 0 0 0 -1.93281 -2.12354 0.12108 0.02827 2.03559 -0.19338 9.48942 31.2457 -2.11289 0.05672 2.04885 -0.04275 -7.15839 -10.2002 -0.822207 0 0 0 -1.17087 -9.8338 0.0381197 -0.05417 1.74624 0.17202 2.23081 26.9916 -1.17708 0.10407 1.76136 -0.12397 0.124468 -0.0623978 0.0378193 0 0 0 13.3171 -5.33174 23.3071 3.36241 1.20089 -0.31121 -99.7576 20.5238 -37.5184 4.983 -8.88178e-016 0 -11.4285 6.44532 -12.5779 3.48356 0 3.55271e-015 0.977043 -0.0920565 -0.922607 0 0 0 -0.121021 4.53672e-006 -1.14815 0.71526 0 0 -3.18055e-015 -4.77083e-015 -3.18055e-015 0 0 0 -3.18055e-015 -1.59028e-015 -3.18055e-015 0 0 0 -11.4974 -6.11203 -4.89625 -3.1366 1.37405 -0.40465 72.8397 33.41 71.325 -5.2419 0 1.77636e-015 42.7039 34.2476 76.695 -3.44417 8.88178e-016 0 25.2243 -9.19756 -12.2565 0 0 0 0.388202 -2.63711e-006 2.4941 -0.62253 0 0 -8.93126e-032 3.97569e-016 1.28713e-014 0 0 0 -3.18055e-015 -6.95746e-016 5.90142e-016 
0.26985 16.9687 0.374592 1.70014 8.04307 -8.27204 0 0 0 -0.299681 5.35791 18.0368 1.36306 -1.79463 0.83929 -47.5433 -41.2836 -30.3111 2.44811 -6.72613 -1.77636e-015 5.71008 34.3305 3.94096 2.5622 -7.03959 0 -0.65184 17.5589 2.6318 0.15764 -0.43311 2.32255 0.0137648 -0.0609705 -0.0204629 0 0 0 -8.85582 0.425549 -20.6242 -1.30552 -1.79463 0.83929 25.3615 1.73749 4.9721 -2.54253 -6.98555 -1.11022e-016 -4.06233 47.1785 -7.92915 -2.56826 -7.05623 -1.77636e-015 -1.40764 21.069 -2.31605 -0.16473 -0.45259 2.36315 0.0646633 -6.56089 2.21995 0 0 0 -1.93281 -2.12354 0.12108 0.02827 2.03559 -0.19338 9.08419 31.362 -2.10682 0.05672 2.04885 -0.04275 -7.10212 -10.1935 -0.795893 0 0 0 -1.33706 -9.74691 0.104763 -0.05417 1.74624 0.17202 2.0204 27.0821 -1.07423 0.10407 1.76136 -0.12397 0.250011 -0.123391 0.0778147 0 0 0 13.1397 -5.25617 23.3227 3.36241 1.20089 -0.31121 -99.7358 20.5052 -37.6922 4.983 -1.77636e-015 1.77636e-015 -11.3677 6.34684 -12.4059 3.48356 4.44089e-016 0 0.986229 -0.0755777 -1.00459 0 0 0 -0.121021 4.53672e-006 -1.14815 0.71526 0 -1.77636e-015 -3.18055e-015 -1.59028e-015 3.18055e-015 0 0 0 -1.59028e-015 -1.59028e-015 -6.36111e-015 0 0 0 -11.6347 -6.05373 -4.81797 -3.1366 1.37405 -0.40465 72.885 33.257 71.19 -5.2419 0 1.77636e-015 42.7663 34.2766 76.7156 -3.44417 0 0 25.2506 -9.16226 -12.1828 0 0 0 0.388202 -2.63711e-006 2.4941 -0.62253 0 0 3.18055e-015 0 4.87022e-015 0 0 0 2.4804e-032 -8.19987e-016 1.73315e-015 
0.302536 16.9398 0.621537 2.08124 7.77146 -8.56887 0 0 0 -0.299681 5.35791 18.0368 1.36306 -1.79463 0.83929 -47.6415 -40.905 -30.2491 2.44811 -6.72613 -1.77636e-015 5.57742 35.1524 4.72291 2.5622 -7.03959 0 -1.48842 19.663 3.60302 0.15764 -0.43311 2.32255 0.0201452 -0.0892967 -0.0299697 0 0 0 -8.85582 0.425549 -20.6242 -1.30552 -1.79463 0.83929 24.8862 0.755893 5.45132 -2.54253 -6.98555 -2.22045e-016 -3.97917 49.2749 -8.62725 -2.56826 -7.05623 0 -0.553527 24.3461 -3.67187 -0.16473 -0.45259 2.36315 0.243124 -9.55126 3.22258 0 0 0 -1.93281 -2.12354 0.12108 0.02827 2.03559 -0.19338 8.67572 31.4783 -2.10109 0.05672 2.04885 -0.04275 -7.04305 -10.1861 -0.770085 0 0 0 -1.49889 -9.66029 0.168698 -0.05417 1.74624 0.17202 1.81588 27.1721 -0.97509 0.10407 1.76136 -0.12397 0.37365 -0.187188 0.113459 0 0 0 12.9687 -5.18019 23.3317 3.36241 1.20089 -0.31121 -99.6645 20.4832 -37.7834 4.983 0 0 -11.3803 6.30014 -12.4277 3.48356 -4.44089e-016 1.77636e-015 1.04984 -0.0756927 -1.00224 0 0 0 -0.121021 4.53672e-006 -1.14815 0.71526 0 0 0 1.59028e-015 -0 0 0 0 0 3.18055e-015 -0 0 0 0 -11.7684 -5.99173 -4.7487 -3.1366 1.37405 -0.40465 72.9305 33.103 71.0559 -5.2419 8.88178e-016 1.77636e-015 42.8301 34.3031 76.7339 -3.44417 0 -3.55271e-015 25.2769 -9.1257 -12.107 0 0 0 0.388202 -2.63711e-006 2.4941 -0.62253 8.88178e-016 0 3.18055e-015 1.19271e-015 6.06293e-015 0 0 0 -6.14617e-032 8.44835e-016 4.16827e-015 
